<?xml version="1.0" encoding="utf-8"?>
<!-- Generator: Adobe Illustrator 25.2.0, SVG Export Plug-In . SVG Version: 6.00 Build 0)  -->
<svg version="1.1" id="Capa_1" xmlns="http://www.w3.org/2000/svg" xmlns:xlink="http://www.w3.org/1999/xlink" x="0px" y="0px"
	 viewBox="0 0 1891.9 1750.1" style="enable-background:new 0 0 1891.9 1750.1;" xml:space="preserve">
<style type="text/css">
	.st0{fill:#181C24;}
	.st1{fill:#FFFFFF;}
</style>
<g>
	<path class="st0" d="M0,125.4C0,56.2,62.6,0,139.8,0h1612.3c77.2,0,139.8,56.2,139.8,125.4v1499.4c0,69.2-62.6,125.3-139.8,125.3
		H139.8C62.6,1750.1,0,1694.1,0,1624.8V125.4L0,125.4z"/>
	<path class="st1" d="M574.9,1464.6V676.7H291.8v787.9H574.9L574.9,1464.6z M433.5,569.2c98.7,0,160.2-60.5,160.2-136.1
		c-1.8-77.3-61.5-136.1-158.3-136.1c-96.9,0-160.2,58.8-160.2,136.1c0,75.6,61.4,136.1,156.4,136.1H433.5L433.5,569.2z
		 M731.6,1464.6h283.1v-440c0-23.5,1.8-47.1,9.3-63.9c20.4-47.1,67-95.8,145.3-95.8c102.4,0,143.4,72.3,143.4,178.2v421.4h283.1
		v-451.7c0-242-139.6-354.6-325.9-354.6c-152.7,0-219.7,78.9-257,132.7h1.9V676.7H731.6C735.3,750.7,731.6,1464.6,731.6,1464.6
		L731.6,1464.6z"/>
</g>
</svg>
