<?xml version="1.0" encoding="utf-8"?>
<!-- Generator: Adobe Illustrator 25.2.0, SVG Export Plug-In . SVG Version: 6.00 Build 0)  -->
<svg version="1.1" id="Capa_1" xmlns="http://www.w3.org/2000/svg" xmlns:xlink="http://www.w3.org/1999/xlink" x="0px" y="0px"
	 viewBox="0 0 113.4 56.7" style="enable-background:new 0 0 113.4 56.7;" xml:space="preserve">
<style type="text/css">
	.st0{fill:#0094D9;}
</style>
<g>
	<g>
		<path class="st0" d="M38.2,20.1c0.6,0.7,1.6,1.1,2.1,1.7c-0.4-2-2-3.6-3.8-4C37.4,18.5,37.6,19.4,38.2,20.1z M16.3,25.2
			c1.3-2.7,3.1-2.2,3.9-4.8c-0.4,0.8-2.5,1.1-3.4,3.2c0.5-1.2,0.2-3.1,1.1-4.1C15.4,21.3,16.4,24.2,16.3,25.2z M18.6,31.7
			c0.2,1.1-0.4,2.6,0.6,4.1c-1.1-1.2-3.4-1.5-4.3-3.4c1.2,4.5,4.2,3.6,5.6,4.6C19.3,35.3,20.3,34.2,18.6,31.7z M18.2,34.5
			c-0.7-2.5,0.5-3.4-0.4-5.8c-0.1,1.4-1,2-0.4,4.5c-1.1-2.1-2.8-2.9-3.3-4.4C14.2,32.9,17.4,33.4,18.2,34.5z M23.1,38.8
			c-0.9-1.3-0.3-2-2.9-4.4c0.6,0.9,0,2,1.8,3.6c-1.7-1-4.2-0.6-5.3-2C18.6,39.9,22.1,38.3,23.1,38.8L23.1,38.8z M35.9,38
			c1.8-1.7,1.2-2.8,1.8-3.6c-2.6,2.4-2,3.1-2.9,4.4c1-0.5,4.5,1.1,6.5-2.7C40.1,37.4,37.7,37,35.9,38L35.9,38z M38.7,35.8
			c1-1.5,0.4-3,0.6-4.1c-1.7,2.5-0.8,3.6-1.9,5.3c1.4-1,4.4-0.1,5.6-4.6C42.1,34.2,39.8,34.5,38.7,35.8L38.7,35.8z M34.5,39
			c-0.9-0.3-1.9-0.4-2.9-0.4c-0.9,0-1.8,0.1-2.6,0.4c-0.8-0.3-1.7-0.5-2.6-0.4c-1,0-1.9,0.2-2.9,0.4c-1.6,0.4-3,0.8-4.2,0.1
			c1.1,1,2.5,1.4,4.4,1.2c1.6-0.2,2.9-1,4.4-1h0.1c-1,0.5-1.8,1.1-2.5,1.9l0.7,0.1c0,0,0.8-1.6,2.5-2c1.8,0.4,2.5,2,2.5,2l0.7-0.1
			c-0.7-0.8-1.6-1.5-2.5-1.9h0.1c1.5,0,2.8,0.8,4.4,1c1.9,0.2,3.3-0.2,4.4-1.2C37.4,39.7,36.1,39.4,34.5,39L34.5,39z M17.9,26
			c-0.7,1.3-1.7,1.5-1.6,4.2c-0.6-2.3-1.9-3.2-1.9-4.7c-0.9,3.9,1.5,4.3,2.2,5.9C16.6,29.1,18.1,28.6,17.9,26z M18.8,23
			c-0.2,0.3-0.4,0.5-1,1c-0.9,0.7-1.5,1.8-1.8,2.9c0.1-1.4-0.8-3.4-0.2-4.9c-2.2,3.2,0.1,5.1,0.2,6.2C16.6,25.9,18,25.9,18.8,23z
			 M41.8,26.8c-0.2-1.1-0.9-2.2-1.8-2.9c-0.6-0.5-0.8-0.6-1-1c0.9,2.9,2.2,2.9,2.8,5.2c0.1-1.1,2.5-3,0.2-6.2
			C42.6,23.4,41.7,25.4,41.8,26.8z M43.7,28.9c-0.5,1.5-2.2,2.2-3.3,4.4c0.6-2.5-0.3-3.2-0.4-4.5c-0.9,2.4,0.3,3.3-0.4,5.8
			C40.5,33.4,43.7,32.9,43.7,28.9L43.7,28.9z M39.9,26c-0.1,2.6,1.4,3.1,1.3,5.4c0.6-1.6,3.1-2.1,2.2-5.9c0,1.5-1.3,2.3-1.8,4.6
			C41.6,27.5,40.6,27.2,39.9,26z M19.7,20.1c0.6-0.7,0.8-1.6,1.6-2.3c-1.8,0.4-3.4,2-3.8,4C18.1,21.2,19.1,20.8,19.7,20.1L19.7,20.1
			z M37.7,20.4c0.8,2.6,2.7,2,3.9,4.8c-0.1-0.9,0.9-3.8-1.5-5.7c0.8,1,0.6,2.9,1.1,4.1C40.1,21.5,38.1,21.2,37.7,20.4L37.7,20.4z
			 M31.3,21.9c-0.5-0.2-1-0.3-1.5-0.4c0,0.1,0,0.2,0,0.3c0.5,0.1,0.9,0.2,1.4,0.4C31.2,22.1,31.3,22,31.3,21.9z M30.9,18.7
			L30.9,18.7l-0.1-0.2l-0.5,0l-0.1,0.1l-0.3,0v0.1c0.2,0,0.3,0,0.5,0.1l0.2,0L30.9,18.7z M30,29.5c0-0.1-0.1-0.2-0.3-0.2h0
			c0,0.1,0,0.4,0,0.6C29.8,29.7,30,29.6,30,29.5z M24.2,23.1c0-0.1,0-0.1,0-0.2c-0.1,0-0.1,0-0.2,0L24.2,23.1z M28.9,37.8
			c5.6,0,10.2-4.6,10.2-10.3c0-5.2-4-9.6-9.1-10.1c0,0,0,0,0,0.1c0,0.1,0,0.2-0.1,0.3c2.2,0.2,4.3,1.2,5.9,2.8l-1.1,1.1l0-0.2
			l-0.1-0.1l-0.2,0l0-0.1l-0.1-0.5l-0.3-0.3L33.2,20l-0.1,0.1l-0.2,0c0.3,0.4,0.5,1,0.5,1.5c0,0.1,0,0.1,0,0.2l0.4,0.5l-0.2,0
			l0.1,0.2L33.4,23l-0.2-0.3c-0.1,0.2-0.2,0.4-0.3,0.6l0.1,0.1l-1.2,1.2c-0.1-0.1-0.1-0.1-0.2-0.2c-0.1,0.1-0.2,0.1-0.3,0.1l0.1,0.1
			l-0.1,0.1l-0.1,0.1l-0.1,0.1L31,24.8l-0.3,0.1l0.1,0.1l0.2,0l0.1,0l0-0.1l0.1,0l0-0.1l0.2,0h0.1c0,0,0,0,0.1,0.1l-0.5,0.5l0,0
			l-0.5,0.1l-0.1,0.1l-0.1,0l0.3-0.3l-0.1-0.1l-0.3,0.4l0.1,0v0.1l0.1,0l0,0.1l-0.2,0l-0.2,0l-0.4-0.2c0,0,0,1.2,0,1.7
			c1,0.3,2.1,0.8,2.1,2.1c0,0.6-0.3,1.1-0.7,1.4l0,0l0,0l0,0l0,0c-0.4,0.3-0.9,0.4-1.4,0.6l0,0.9c0.7,0.4,1.6,0.9,1.5,2.4
			c0,0.4-0.2,0.5-0.3,0.5l0,0c-0.4,0.1-0.9,0.2-1.3,0.2c0,0.1,0,0.2,0,0.3c1.9-0.1,3.7-0.9,5.1-2.2l1.2,1.2c-3.8,3.7-9.8,3.7-13.7,0
			l1.2-1.2c1.4,1.3,3.1,2.1,5,2.2c0-0.1,0-0.2,0-0.3c-1.8-0.1-3.5-0.9-4.8-2.1l0.3-0.3l0.4,0l0.2-0.2l0.6,0l0.1-0.2l0-0.1
			c0.9,0.7,2,1.1,3.1,1.2c0-0.1,0-0.2,0-0.3c-1.2-0.1-2.4-0.7-3.3-1.5l1.2-1.2c0.3,0.3,0.6,0.5,1,0.6c0-0.1,0.1-0.2,0.1-0.3
			c-0.3-0.2-0.6-0.3-0.8-0.6l1.2-1.2c0.2,0.2,0.4,0.3,0.6,0.4c0-0.1,0-0.2,0-0.4c-0.1-0.1-0.3-0.1-0.4-0.2l0.3-0.3
			c-0.1,0-0.2-0.1-0.4-0.1l-0.2,0.2c-0.1-0.1-0.2-0.3-0.3-0.4c-0.2-0.1-0.4-0.2-0.6-0.3c-0.7-0.4-1.1-1.2-1.1-2
			c0-0.6,0.1-1.1,0.5-1.5l-1.2-1.2c0.9-0.8,2-1.4,3.2-1.6c0-0.1,0-0.2,0-0.3c-1.3,0.2-2.5,0.8-3.4,1.7l-0.2-0.2
			c0,0.1-0.1,0.2-0.2,0.3l0.1,0.1c-1.1,1.1-1.7,2.6-1.7,4.1h-1.7c0-2,0.8-3.9,2.2-5.3l0.5,0.5c0,0,0.1,0,0.1,0c0.1,0,0.2,0,0.3-0.1
			l-0.7-0.7c0.4-0.3,0.8-0.7,1.2-0.9c0-0.1,0.1-0.2,0.1-0.2c0.1-0.1,0.2-0.2,0.3-0.3c-0.6,0.3-1.2,0.8-1.7,1.3l-1.2-1.2
			c1.6-1.6,3.7-2.5,5.9-2.8c0,0,0-0.1,0-0.1c0-0.1,0-0.2,0-0.3c-5.6,0.6-9.7,5.6-9.1,11.2C19.3,33.9,23.7,37.8,28.9,37.8L28.9,37.8z
			 M31.2,30.8L31.2,30.8L31.2,30.8L31.2,30.8z M36.1,20.8c1.7,1.8,2.7,4.2,2.7,6.7h-1.7c0-1.2-0.3-2.5-0.9-3.6l0,0l0.1,0.1l0-0.1
			l-0.3-0.5l-0.4-0.5l-0.4-0.3c-0.1-0.2-0.3-0.4-0.4-0.5L36.1,20.8z M34,22.9l0.4,0l0.1,0.1l0,0.2l0.6,0.4l0.1,0l0.7,0.8l0.3-0.1
			c0.5,1,0.7,2.1,0.7,3.2h-1.7c0-0.4-0.1-0.9-0.2-1.3l0.1-0.1l0.1-0.5L35.1,25l-0.2-0.6l-0.5-0.7l0.1,0.1l0.1-0.1l-0.4-0.3l0,0.1
			l0.4,0.5l0.2,0.4l0.1,0.4l0,0.3l0.1,0.5l-0.1,0c0,0-0.2-0.3-0.2-0.4l0.1-0.1L34.6,25v-0.2l-0.1-0.1l-0.1,0c0-0.1-0.1-0.2-0.1-0.3
			l0.1,0l0,0l0-0.1l0.1-0.1l0-0.1l-0.2,0.1l0.1-0.3L34.2,24l-0.1,0.2c-0.2-0.3-0.4-0.5-0.6-0.8L34,22.9z M33.6,26.9l0.3-0.2l0.3,0
			l0.1-0.1l0.2-0.1l0.1-0.1l0.1-0.2c0,0.1,0,0.2,0.1,0.3l-0.2,0.5v0.2l0.2-0.3c0.1,0.3,0.1,0.6,0.1,0.9h-1.5l0-0.1l0.2-0.1l0-0.1
			l0.1-0.1l0.2,0l0-0.1L33.6,26.9z M31.6,25.7l0.1,0v0l-0.1-0.1l0.1-0.3l0.2-0.2c0.1,0.1,0.2,0.3,0.3,0.4l-0.1,0.2l-0.2-0.1l-0.1,0
			l0.1,0.1h0.1l-0.1,0.2l0-0.1L31.6,25.7z M32.2,31.3l-0.4-0.1l-0.1,0l-0.2-0.2L31.4,31c0.1-0.1,0.2-0.1,0.3-0.2l0.3,0.2l0.2,0.1
			L32.2,31.3L32.2,31.3z M32.1,24.8l1.2-1.2c0.3,0.3,0.5,0.6,0.7,1l-0.1,0l0,0.3l0.4,0.3c0.1,0.2,0.2,0.5,0.3,0.7l-0.1,0.1l-0.2,0.1
			l0,0.2l-0.1,0.1l-0.1,0.1l-0.1,0h-0.2l0.1-0.1l0.1-0.3l0.1-0.1l-0.3-0.3l-0.2,0.1L33.5,26l-0.1,0.2L33.2,26l-0.1-0.1l0.1-0.1
			l0,0.1l0.1,0l0-0.1h-0.1l0,0.1l-0.1,0l-0.4-0.4l-0.1-0.1l0-0.1l0.1,0l-0.1,0c0,0-0.1,0-0.1,0l0.1,0.1h-0.2
			C32.3,25.1,32.2,25,32.1,24.8z M32.7,31.1L32.5,31l0.1-0.2l0.2-0.3l-0.1-0.1l0.1-0.2l0-0.2l-0.1-0.2l-0.1-0.1l-0.1,0.1l-0.1,0
			c0.1-0.2,0.3-0.4,0.4-0.6l0.1-0.1L33,29l0,0l0.1-0.1l-0.1-0.1l0.1,0l0.1,0.1h0.3l0.2-0.1l0.4-0.1l-0.1-0.1l0-0.2l0.2,0.1l0.1,0
			l0-0.2L34,28.4l-0.3-0.1l-0.2-0.5h1.3c-0.1,1.4-0.6,2.8-1.6,3.8L33,31.5l0.1-0.2l-0.1-0.5L32.7,31.1z M32.9,34.4l0.2-0.3L33,33.9
			l0.2-0.2v-0.1L33,33.5l0.2-0.3l0.2-0.3l-0.2-0.3H33l-0.1-0.2c0.1-0.1,0.2-0.2,0.3-0.3l1.2,1.2C33.9,33.7,33.4,34.1,32.9,34.4
			L32.9,34.4z M34.4,32.8l0.1-0.1L34.4,32l-0.1,0l0.1-0.1l-0.3-0.1L34,32l0,0.3l-0.1,0.1l-0.5-0.5c1.1-1.1,1.7-2.5,1.7-4.1h1.7
			c-0.1,2-0.8,3.8-2.2,5.2L34.4,32.8z M34.8,33.3c1.4-1.5,2.3-3.4,2.3-5.5h1.7c-0.1,2.5-1.1,4.9-2.8,6.7L34.8,33.3z M24.7,31.7
			c-0.1-0.1-0.2-0.3-0.3-0.4l0.1-0.4l-0.2-0.4l0-0.6L24,29.4l0-0.2l-0.2-0.5l-0.2-0.1l0.1-0.2l-0.1-0.2l0.1-0.2h0.2l0.1-0.1h0.4
			l0.1,0.1l-0.1,0.4l0,0.1l0.1,0.3l-0.1,0.1l-0.1-0.1l0,0l0.1,0.2l0.1,0.2h0.1l0-0.2l-0.1-0.1v-0.1l0-0.3l0.1-0.5l-0.1-0.1h0.3
			c0.1,1,0.5,1.9,1.2,2.7L24.7,31.7z M23.6,28.4l-0.2,0.2h-0.3l0,0c0-0.3-0.1-0.5-0.1-0.8h0.5l-0.1,0.4L23.6,28.4z M24.2,27.2l0-0.3
			l0.2-0.1l0.4,0.1l0.1,0.1c0,0.2-0.1,0.4-0.1,0.6h-0.4L24.2,27.2z M25.9,28.5L25.9,28.5l0.3,0.1l-0.1,0.1l0.2,0.2l0-0.2l0.1-0.2
			l0.1,0.1l0.1,0.2l-0.3,0.1l0.1,0.2l0.2-0.1l0-0.1l0.1-0.1l0.1-0.4c0.1,0.2,0.2,0.4,0.4,0.6l-1.2,1.2c-0.6-0.6-0.9-1.4-1-2.2
			l0.2,0.3h0.2L25.9,28.5z M24.7,23.6l1.2,1.2c-0.2,0.3-0.5,0.6-0.6,0.9h-0.1L25,25.7h-0.1l-0.2,0.2l0.2,0l0.2-0.1l0,0.1L25,26h-0.1
			l-0.3,0.2l-0.3,0L24,26.9l0.1,0.1l-0.2,0.2l0,0.3h-0.7C23.1,26.1,23.7,24.7,24.7,23.6z M23.1,32.6l0.4,0.2l0.1,0.1l-0.3,0.3
			c-0.1-0.1-0.2-0.3-0.4-0.4L23.1,32.6z M22.8,27.8c0,0.2,0,0.3,0,0.5l-0.2,0l0,0.2l-0.4,0.5l0,0.7L21.7,30h-0.2
			c-0.2-0.7-0.4-1.4-0.4-2.2L22.8,27.8z M21.1,30L21.1,30l-0.2-0.1l-0.5,0l0.1,0.2L20.1,30l0.1-0.1l-0.1-0.1l-0.3,0.1l-0.1,0.2
			l0,0.5l0.4,0.9l0.2,0.3l0.1,0l-0.3-0.5L20.1,31l0.1-0.1l0-0.1l0.2,0l0.3,0.4l0.1,0v-0.3l0.1,0.1l0,0.1l0.3,0.1l0.1-0.1l0,0v0.2
			l0.1,0.1l0.1,0l0.3,0.5l0.2,0.1l0.1-0.2c0.3,0.5,0.7,1,1.2,1.5l-1.2,1.2c-1.8-1.8-2.8-4.2-2.8-6.7h1.7
			C20.8,28.6,20.9,29.3,21.1,30z M21.8,20.8l1.2,1.2c-1.4,1.5-2.2,3.5-2.3,5.6h-1.7C19.1,25,20.1,22.6,21.8,20.8L21.8,20.8z
			 M34,20.1L33.9,20l-0.2-0.1L33.5,20l0.2,0.1l0.2,0.2L34,20.1z M33,24.9V25l0.3-0.1l0.1-0.2l-0.2-0.3l0.1-0.2l0.3,0.2l0,0l-0.1,0
			l-0.1-0.1l0.1-0.1l-0.1-0.1l-0.3,0.1l-0.1,0.2l-0.1,0.1l0.1,0.2l0,0.1L33,24.9z M20.8,32.4L20.8,32.4L20.7,32l-0.2-0.1L20.8,32.4z
			 M27.7,26.1c0,0.3,0.2,0.5,0.5,0.7c0,0,0,0,0-0.1L28,26.4l0.1-0.2l0.1,0c0-0.3,0-0.7,0-0.7h0C27.8,25.6,27.7,25.8,27.7,26.1z"/>
		<path class="st0" d="M29.6,33.4c0.5,0.3,1,0.6,1.2,1.3c0.1-1.2-0.6-1.7-1.2-2C29.6,32.7,29.6,33.4,29.6,33.4z"/>
		<path class="st0" d="M33.1,21.6c0-1-0.8-2.2-2.6-2.6c-0.2,0-0.4-0.1-0.6-0.1c0,0.2,0,0.5,0,0.5c0,0.1,0,0.5,0,0.6
			c0.1,0,0.2,0,0.4,0c1.1,0.3,1.5,0.9,1.5,1.5c0,1-0.9,1.4-1.9,1.7l-0.3,0.1c-0.3,0.1-0.6,0.2-1,0.2c-0.1,0-0.2,0.1-0.3,0.1l0,0
			c-1.2,0.4-2.2,0.9-2.2,2.3c0,1.4,1.1,2,2.3,2.3c0-0.4,0-0.8,0-1.2c-0.5-0.2-0.8-0.5-0.8-1c0-0.5,0.3-0.8,0.8-1
			c0.1,0,0.2-0.1,0.3-0.1c0.3-0.1,0.6-0.2,0.9-0.3l0.3-0.1l0,0C31.3,24.2,33.1,23.7,33.1,21.6z"/>
		<path class="st0" d="M27.4,31.7c0,0.6,0.4,0.9,0.8,1.1c0-0.1,0-1,0-1c0-0.2,0.2-0.3,0.3-0.3c0.2-0.1,0.4-0.2,0.7-0.3
			c0.1,0,0.2-0.1,0.4-0.1l0,0c0.8-0.3,1.8-0.6,1.8-1.6c0-1-0.8-1.5-1.8-1.8c0,0.3,0,0.8,0,1.1c0.4,0.1,0.6,0.3,0.6,0.6
			c0,0.4-0.4,0.6-0.7,0.7c-0.1,0-0.3,0.1-0.3,0.1c-0.2,0.1-0.5,0.1-0.7,0.2c-0.1,0-0.2,0.1-0.3,0.1C27.8,30.9,27.4,31.1,27.4,31.7z"
			/>
		<path class="st0" d="M28,19.1c-0.4,0.1-0.7,0.3-1,0.4c-0.4,0.1-0.9,0.1-1.4,0.7c-0.2,0.2-0.3,0.4-0.5,0.6
			c-0.2,0.2-0.2,0.6-0.3,0.8c-0.2,0.3-0.1,0.5-0.1,0.5v0c0,0.1-0.1,0.3-0.2,0.4c-0.2,0.2-0.4,0.3-0.7,0.3c0.2,0.1,0.6,0,0.6,0
			c-0.1,0.2-0.1,0.3-0.1,0.5c0.3-0.6,0.5-0.8,0.6-0.9c0.1,0,0.4,0,0.8-0.2c0.5-0.3,1.3-0.8,1.5-1.1c0.2-0.3,0.5-0.5,0.9-0.7
			C28,19.9,28,19.5,28,19.1z M25.9,21l-0.3,0.1l0.3-0.5l0.4,0L25.9,21z"/>
		<path class="st0" d="M29.1,31.6c0,0-0.2,0.1-0.3,0.1c-0.1,0-0.2,0.1-0.2,0.1c0,0,0.1,4.5,0.1,4.6c0,0.9,0.5,0.9,0.5,0
			c0-0.1,0.1-4.8,0.1-4.8S29.1,31.6,29.1,31.6z"/>
		<path class="st0" d="M28.6,30.1c0.1,0,0.3-0.1,0.4-0.1l0.3-0.1c0-0.3,0.1-4.1,0.1-4.9c-0.3,0.1-0.6,0.2-0.9,0.3
			C28.5,25.8,28.6,29.7,28.6,30.1z"/>
		<path class="st0" d="M29,15.3c-1.3,0-0.8,1.9-0.6,2.6c0,0,0.1,4.4,0.1,5.4c0.2-0.1,0.4-0.1,0.6-0.1l0.4-0.1c0-1,0.1-5.1,0.1-5.1
			C29.6,17.2,30.3,15.3,29,15.3z"/>
		<polygon class="st0" points="50.4,21.5 50.3,21.5 49.2,27.6 47.7,27.6 46.3,20.2 47.5,20.2 48.5,25.9 48.5,25.9 49.6,20.2 
			51.1,20.2 52.2,25.9 52.2,25.9 53.2,20.2 54.4,20.2 52.9,27.6 51.4,27.6 		"/>
		<path class="st0" d="M56.5,22c1.1,0,2.3,0.6,2.3,2.8c0,2.3-1.2,2.8-2.3,2.8c-1.1,0-2.3-0.5-2.3-2.8C54.3,22.6,55.5,22,56.5,22z
			 M56.5,26.7c0.8,0,1-1,1-1.9c0-0.9-0.2-1.9-1-1.9c-0.8,0-1,1-1,1.9S55.7,26.7,56.5,26.7L56.5,26.7z"/>
		<path class="st0" d="M59.6,23c0-0.3,0-0.6,0-0.9h1.1c0,0.3,0,0.7,0,1h0c0.1-0.4,0.5-1.1,1.3-1.1c0.1,0,0.1,0,0.2,0v1.2
			c-0.1,0-0.2-0.1-0.4-0.1c-0.5,0-1.1,0.3-1.1,1.3v3h-1.3L59.6,23z"/>
		<rect x="63.1" y="19.6" class="st0" width="1.3" height="7.9"/>
		<path class="st0" d="M69.5,19.6v7c0,0.3,0,0.6,0,0.9h-1.2c0-0.3,0-0.6,0-0.8h0c-0.2,0.5-0.6,0.9-1.4,0.9c-1.3,0-1.8-1.3-1.8-2.8
			c0-1.8,0.7-2.8,1.8-2.8c0.6,0,1.1,0.3,1.3,0.9h0v-3.3H69.5z M67.3,26.7c0.7,0,1-0.8,1-1.9c0-1.1-0.3-1.8-1-1.8
			c-0.7,0-0.9,0.7-0.9,1.8C66.4,26.1,66.6,26.7,67.3,26.7z"/>
		<polygon class="st0" points="73.7,20.2 74.9,20.2 74.9,23.2 77,23.2 77,20.2 78.3,20.2 78.3,27.6 77,27.6 77,24.3 74.9,24.3 
			74.9,27.6 73.7,27.6 		"/>
		<path class="st0" d="M83.1,27.3c-0.5,0.2-1,0.3-1.6,0.3c-1.7,0-2.4-1.3-2.4-2.7c0-1.6,0.8-2.9,2.1-2.9c1.1,0,2.1,0.7,2.1,2.9v0.3
			h-3c0,0.9,0.4,1.5,1.3,1.5c0.8,0,1.1-0.2,1.4-0.4L83.1,27.3z M82.2,24.4c0-1-0.3-1.5-0.9-1.5c-0.7,0-0.9,0.7-0.9,1.5H82.2z"/>
		<path class="st0" d="M84.5,22.4c0.5-0.3,1.1-0.4,1.6-0.4c1.6,0,2,0.8,2,2.2v2.4c0,0.3,0,0.6,0.1,1h-1.1C87,27.3,87,27.1,87,26.8h0
			c-0.3,0.4-0.7,0.8-1.5,0.8c-0.8,0-1.6-0.6-1.6-1.6c0-1.5,1.1-1.9,2.7-1.9h0.3V24c0-0.5-0.3-1-1-1c-0.5,0-1,0.2-1.4,0.5L84.5,22.4z
			 M86.9,24.9h-0.1c-1.1,0-1.7,0.2-1.7,1c0,0.5,0.3,0.8,0.8,0.8c0.7,0,1-0.6,1-1.6L86.9,24.9z"/>
		<rect x="89.3" y="19.6" class="st0" width="1.3" height="7.9"/>
		<path class="st0" d="M92.2,21l1.3-0.4v1.5h1v1h-1v2.8c0,0.6,0.2,0.8,0.6,0.8c0.2,0,0.3,0,0.5-0.1v0.9c-0.3,0.1-0.5,0.2-0.8,0.2
			c-0.9,0-1.5-0.4-1.5-1.6v-3h-0.8v-1h0.8L92.2,21z"/>
		<path class="st0" d="M95.1,19.6h1.3v3.2h0c0.2-0.3,0.5-0.8,1.3-0.8c1.2,0,1.5,0.9,1.5,2v3.5h-1.3v-3.3c0-0.8-0.2-1.2-0.7-1.2
			c-0.7,0-0.9,0.6-0.9,1.3v3.2h-1.3V19.6z"/>
		<path class="st0" d="M49,29.5c1.5,0,2.8,1.1,2.8,3.8s-1.3,3.8-2.8,3.8c-1.5,0-2.8-1.1-2.8-3.8C46.2,30.7,47.6,29.5,49,29.5z
			 M49,36.1c0.8,0,1.5-0.7,1.5-2.8c0-2-0.7-2.8-1.5-2.8c-0.8,0-1.5,0.7-1.5,2.8C47.6,35.4,48.2,36.1,49,36.1L49,36.1z"/>
		<path class="st0" d="M52.7,32.5c0-0.3,0-0.6,0-0.9h1.1c0,0.3,0,0.7,0,1h0c0.1-0.4,0.5-1.1,1.3-1.1c0.1,0,0.1,0,0.2,0v1.2
			c-0.1,0-0.2-0.1-0.4-0.1c-0.5,0-1.1,0.3-1.1,1.3v3h-1.2V32.5z"/>
		<path class="st0" d="M56.1,37.9c0.5,0.3,1,0.4,1.5,0.5c1.2,0,1.4-0.9,1.4-1.7v-0.5h0c-0.2,0.4-0.6,0.9-1.4,0.9
			c-0.7,0-1.8-0.5-1.8-2.7c0-1.5,0.5-2.8,1.9-2.8c0.8,0,1.1,0.5,1.4,0.9h0c0-0.3,0-0.6,0-0.8h1.1c0,0.3,0,0.6,0,0.9v4
			c0,1.7-0.5,2.9-2.4,2.9c-0.6,0-1.2-0.1-1.8-0.3L56.1,37.9z M58.1,36.1c0.8,0,1.1-0.6,1.1-1.8c0-1.1-0.4-1.8-1-1.7
			c-0.7,0-0.9,0.6-0.9,1.8C57.3,35.5,57.7,36.1,58.1,36.1z"/>
		<path class="st0" d="M61.6,31.9c0.5-0.3,1.1-0.4,1.6-0.4c1.6,0,2,0.8,2,2.2v2.4c0,0.3,0,0.6,0.1,1h-1.1c-0.1-0.2-0.1-0.5-0.1-0.7
			h0c-0.3,0.4-0.7,0.8-1.5,0.8c-0.8,0-1.6-0.6-1.6-1.6c0-1.5,1.1-1.9,2.7-1.9h0.3v-0.2c0-0.5-0.3-1-1-1c-0.5,0-1,0.2-1.4,0.5
			L61.6,31.9z M64.1,34.4H64c-1.1,0-1.7,0.2-1.7,1c0,0.5,0.3,0.8,0.8,0.8c0.7,0,1-0.6,1-1.6V34.4z"/>
		<path class="st0" d="M66.5,32.5c0-0.3,0-0.6,0-0.9h1.2c0,0.3,0,0.6,0,0.8h0c0.2-0.3,0.5-0.9,1.4-0.9c1.2,0,1.5,0.9,1.5,2V37h-1.2
			v-3.3c0-0.8-0.2-1.2-0.7-1.2c-0.7,0-0.9,0.6-0.9,1.3V37h-1.3L66.5,32.5z"/>
		<path class="st0" d="M71.7,29.3H73v1.3h-1.3V29.3z M71.7,31.6H73V37h-1.3V31.6z"/>
		<polygon class="st0" points="74.2,35.9 76.4,32.6 74.2,32.6 74.2,31.6 77.6,31.6 77.6,32.7 75.4,36 77.7,36 77.7,37 74.2,37 		"/>
		<path class="st0" d="M78.9,31.9c0.5-0.3,1.1-0.4,1.6-0.4c1.6,0,2,0.8,2,2.2v2.4c0,0.3,0,0.6,0.1,1h-1.1c-0.1-0.2-0.1-0.5-0.1-0.7
			h0c-0.3,0.4-0.7,0.8-1.5,0.8c-0.8,0-1.6-0.6-1.6-1.6c0-1.5,1.1-1.9,2.7-1.9h0.3v-0.2c0-0.5-0.3-1-1-1c-0.5,0-1,0.2-1.4,0.5
			L78.9,31.9z M81.3,34.4h-0.1c-1.1,0-1.7,0.2-1.7,1c0,0.5,0.3,0.8,0.8,0.8c0.7,0,1-0.6,1-1.6L81.3,34.4z"/>
		<path class="st0" d="M83.9,30.5l1.3-0.4v1.5h1v1h-1v2.8c0,0.6,0.2,0.8,0.6,0.8c0.2,0,0.3,0,0.5-0.1v0.9c-0.3,0.1-0.5,0.2-0.8,0.2
			c-0.9,0-1.5-0.4-1.5-1.6v-3h-0.8v-1h0.8V30.5z"/>
		<path class="st0" d="M87.1,29.3h1.3v1.3h-1.3V29.3z M87.2,31.6h1.3V37h-1.3V31.6z"/>
		<path class="st0" d="M91.7,31.5c1.1,0,2.3,0.6,2.3,2.8c0,2.3-1.2,2.8-2.3,2.8c-1.1,0-2.3-0.5-2.3-2.8
			C89.5,32.1,90.7,31.5,91.7,31.5z M91.7,36.2c0.8,0,1-1,1-1.9c0-0.9-0.2-1.9-1-1.9c-0.8,0-1,1-1,1.9C90.7,35.2,90.9,36.2,91.7,36.2
			L91.7,36.2z"/>
		<path class="st0" d="M95.1,32.5c0-0.3,0-0.6,0-0.9h1.2c0,0.3,0,0.6,0,0.8h0c0.2-0.3,0.5-0.9,1.4-0.9c1.2,0,1.5,0.9,1.5,2V37H98
			v-3.3c0-0.8-0.2-1.2-0.7-1.2c-0.7,0-0.9,0.6-0.9,1.3V37h-1.3V32.5z"/>
	</g>
</g>
</svg>
